<?xml version="1.0" standalone="no"?>
<!DOCTYPE svg PUBLIC "-//W3C//DTD SVG 20010904//EN"
 "http://www.w3.org/TR/2001/REC-SVG-20010904/DTD/svg10.dtd">
<svg version="1.0" xmlns="http://www.w3.org/2000/svg"
 width="1000.000000pt" height="1000.000000pt" viewBox="0 0 1000.000000 1000.000000"
 preserveAspectRatio="xMidYMid meet">
<metadata>
Created by potrace 1.14, written by Peter Selinger 2001-2017
</metadata>
<g transform="translate(0.000000,1000.000000) scale(0.100000,-0.100000)"
fill="#000000" stroke="none">
<path d="M4749 9700 c-48 -11 -98 -135 -173 -430 -2 -8 -12 -44 -21 -80 -9
-36 -18 -69 -20 -75 -6 -26 -19 -78 -42 -160 -14 -49 -26 -94 -27 -100 -8 -40
-18 -52 -39 -50 -74 8 -140 29 -157 48 -70 83 -60 78 -139 81 -94 3 -118 -1
-124 -25 -4 -15 -14 -19 -50 -19 -68 0 -104 -17 -138 -66 -79 -115 -178 -366
-213 -539 -9 -44 -19 -91 -21 -105 -9 -45 -20 -134 -30 -245 -3 -33 -8 -80
-10 -105 -12 -114 -15 -288 -7 -310 6 -14 23 -39 38 -56 16 -17 38 -43 48 -57
10 -15 25 -27 33 -27 9 0 12 -6 9 -17 -3 -10 -8 -36 -11 -58 -4 -41 -14 -114
-20 -150 -4 -24 -13 -91 -20 -143 -3 -21 -7 -48 -9 -59 -3 -12 -7 -55 -11 -95
-3 -40 -7 -86 -9 -103 -6 -59 -16 -161 -22 -225 -3 -36 -7 -81 -9 -100 -2 -19
-7 -89 -10 -155 -4 -66 -8 -151 -11 -190 -13 -247 -17 -481 -16 -1030 1 -341
3 -660 6 -709 14 -257 17 -326 21 -381 3 -34 7 -110 10 -170 3 -61 7 -121 9
-135 3 -14 8 -56 11 -95 3 -38 8 -88 10 -110 3 -22 7 -67 10 -100 7 -80 15
-143 20 -180 3 -16 7 -52 10 -80 3 -27 8 -66 11 -85 3 -19 8 -55 11 -80 2 -25
11 -72 18 -104 8 -33 12 -63 9 -67 -7 -12 -164 -9 -164 2 0 24 -156 85 -305
119 -27 7 -56 14 -63 16 -28 8 -83 21 -252 59 -155 34 -177 39 -260 54 -76 15
-462 79 -510 85 -25 4 -56 8 -70 10 -14 3 -47 7 -75 11 -27 3 -63 8 -80 10
-29 4 -92 11 -185 20 -314 29 -529 15 -545 -35 -11 -35 -13 -133 -4 -159 25
-64 193 -170 384 -241 33 -12 74 -28 90 -35 63 -27 575 -185 648 -200 10 -2
52 -14 95 -25 42 -12 87 -24 99 -26 12 -2 34 -9 48 -14 14 -5 25 -7 25 -5 0 2
11 0 25 -5 14 -5 36 -12 48 -14 22 -5 102 -23 227 -51 271 -61 456 -92 525
-88 71 4 140 3 167 -3 13 -2 48 -7 78 -9 30 -3 66 -7 80 -10 14 -2 41 -7 60
-10 19 -3 36 -7 37 -9 6 -5 40 -151 41 -172 1 -38 104 -340 154 -454 51 -114
125 -252 179 -330 78 -114 93 -129 126 -127 24 2 29 8 40 49 12 50 19 116 29
263 3 50 7 110 9 135 2 25 3 78 4 119 1 41 3 72 6 69 5 -5 8 -57 20 -313 7
-150 16 -301 30 -470 21 -262 69 -396 182 -511 82 -85 180 -134 298 -151 51
-7 94 -7 125 1 14 3 40 8 57 11 18 2 40 8 50 14 10 5 20 9 23 9 21 -1 111 54
155 94 122 111 184 260 210 503 3 28 7 64 10 80 2 17 7 75 11 130 4 55 8 111
9 125 2 14 3 49 4 79 1 65 6 64 16 -4 12 -86 14 -99 29 -154 18 -63 18 -64 56
-67 25 -2 37 6 64 39 160 197 313 554 417 969 16 65 26 88 38 89 9 0 25 2 36
5 11 2 40 6 65 10 25 3 98 13 162 23 92 14 122 15 145 6 43 -17 180 -6 339 29
12 2 37 7 55 10 40 6 128 26 299 67 69 17 132 32 140 34 8 2 51 13 95 24 44
12 87 23 95 26 159 41 451 135 629 202 304 114 455 207 494 303 16 38 14 148
-3 179 -10 19 -67 39 -138 48 -88 11 -439 4 -517 -11 -11 -2 -56 -7 -100 -11
-44 -4 -82 -8 -85 -10 -3 -1 -35 -6 -72 -9 -37 -4 -77 -9 -90 -11 -43 -7 -163
-24 -199 -29 -20 -3 -42 -8 -50 -10 -8 -3 -32 -7 -54 -10 -32 -4 -323 -60
-420 -81 -11 -3 -31 -7 -45 -10 -14 -4 -34 -8 -45 -10 -74 -16 -340 -87 -356
-96 -10 -5 -19 -7 -19 -5 0 7 -135 -41 -182 -65 -20 -10 -39 -28 -43 -39 -8
-26 -45 -28 -40 -2 2 11 6 43 10 73 3 30 8 61 10 69 2 8 6 42 10 75 6 57 9 83
20 165 3 19 8 58 11 85 3 28 7 61 9 75 7 44 14 122 20 210 4 47 8 105 10 130
5 63 17 226 20 280 15 222 20 477 20 1020 -1 683 -7 895 -40 1280 -2 30 -7 89
-10 130 -3 41 -8 100 -11 130 -2 30 -7 82 -10 115 -5 67 -8 86 -23 195 -6 41
-13 93 -15 115 -2 22 -9 74 -15 115 -6 41 -14 93 -17 115 -2 22 -9 64 -14 94
-13 70 -13 71 5 71 8 0 15 9 15 20 0 13 7 20 20 20 49 0 108 58 111 111 2 27
-10 208 -16 237 -2 10 -6 43 -10 73 -3 30 -11 86 -17 124 -5 39 -11 81 -13 95
-7 57 -18 111 -42 210 -13 58 -26 112 -28 120 -30 132 -164 433 -224 504 -25
29 -64 45 -115 47 -35 2 -51 8 -62 23 -12 18 -25 20 -110 21 -92 0 -97 -1
-117 -27 -26 -31 -114 -74 -173 -84 l-41 -6 -22 78 c-12 44 -23 86 -25 94 -2
8 -6 22 -9 30 -3 8 -29 102 -57 209 -72 270 -136 445 -171 467 -14 8 -385 12
-420 4z m1607 -7145 c11 -15 10 -22 -7 -46 -11 -16 -23 -29 -27 -30 -13 -1
-46 -8 -69 -14 -19 -4 -23 -1 -23 19 0 46 13 85 29 89 36 8 85 -1 97 -18z
m-2632 -29 c3 -17 9 -44 12 -59 l7 -28 -74 7 c-101 9 -122 18 -113 47 15 50
36 61 120 63 39 1 42 -1 48 -30z"/>
</g>
</svg>
